<?xml version="1.0" encoding="UTF-8"?>
<!DOCTYPE svg PUBLIC "-//W3C//DTD SVG 1.1//EN" "http://www.w3.org/Graphics/SVG/1.1/DTD/svg11.dtd">
<svg version="1.1" id="Layer_1" xmlns="http://www.w3.org/2000/svg" xmlns:xlink="http://www.w3.org/1999/xlink" x="0px" y="0px" width="24px" height="24px" viewBox="0 0 24 24" enable-background="new 0 0 24 24" xml:space="preserve">
  <g id="main">
    <g id="icon">
      <path d="M11.88,2.067L10.79,2.233L9.732,2.504L9.637,2.539L9.833,3.153L9.957,3.814L10,4.5L9.971,5.062L9.888,5.607L9.752,6.134L9.567,6.639L9.335,7.12L9.059,7.573L8.743,7.996L8.387,8.387L7.996,8.743L7.573,9.059L7.12,9.335L6.639,9.567L6.134,9.752L5.607,9.888L5.062,9.971L4.5,10L3.814,9.957L3.153,9.833L2.539,9.637L2.504,9.732L2.233,10.79L2.067,11.88L2.01,13L2.067,14.12L2.233,15.21L2.504,16.27L2.874,17.28L3.337,18.24L3.887,19.14L4.52,19.99L5.229,20.77L6.009,21.48L6.855,22.11L7.762,22.66L8.722,23.13L9.732,23.5L10.79,23.77L11.88,23.93L13,23.99L14.12,23.93L15.21,23.77L16.27,23.5L17.28,23.13L18.24,22.66L19.14,22.11L19.99,21.48L20.77,20.77L21.48,19.99L22.11,19.14L22.66,18.24L23.13,17.28L23.5,16.27L23.77,15.21L23.93,14.12L23.99,13L23.93,11.88L23.77,10.79L23.5,9.732L23.13,8.722L22.66,7.762L22.11,6.855L21.48,6.009L20.77,5.229L19.99,4.52L19.14,3.887L18.24,3.337L17.28,2.874L16.27,2.504L15.21,2.233L14.12,2.067L13,2.01zz" fill="#5D9CEC"/>
      <path d="M5.185,20.73L5.229,20.77L6.063,21.53L6.953,22.18L7.889,22.73L8.864,23.19L9.871,23.54L10.9,23.79L11.95,23.94L13,23.99L14.05,23.94L15.1,23.79L16.13,23.54L17.14,23.19L18.11,22.73L19.05,22.18L19.94,21.53L20.77,20.77L21.53,19.94L22.18,19.05L22.73,18.11L23.19,17.14L23.54,16.13L23.79,15.1L23.94,14.05L23.99,13L23.94,11.95L23.79,10.9L23.54,9.871L23.19,8.864L22.73,7.889L22.18,6.953L21.53,6.064L20.77,5.229L20.73,5.185zz" fill="#4B89DC"/>
      <path d="M10.37,6.97L10.27,7.152L9.514,12.72L9.527,12.86L9.598,12.97L9.713,13.04L9.848,13.06L10.56,12.99L11.46,12.95L11.99,12.97L12.52,13.04L13.04,13.18L13.51,13.38L13.92,13.68L14.23,14.07L14.44,14.58L14.52,15.21L14.48,15.63L14.37,16.03L14.19,16.38L13.93,16.7L13.55,17.01L13.1,17.24L12.59,17.38L12.05,17.43L11.33,17.37L10.67,17.23L10.11,17.04L9.674,16.83L9.548,16.79L9.416,16.8L9.306,16.88L9.237,16.99L8.84,18.19L8.843,18.38L8.967,18.54L9.507,18.81L10.22,19.05L11.08,19.23L12.05,19.3L13.03,19.21L13.92,18.98L14.72,18.6L15.4,18.09L15.96,17.47L16.37,16.74L16.63,15.92L16.72,15.03L16.69,14.52L16.6,14.02L16.45,13.56L16.24,13.13L15.98,12.73L15.66,12.38L15.3,12.06L14.89,11.8L14.32,11.51L13.68,11.3L12.98,11.18L12.21,11.14L11.61,11.15L11.97,8.8L16.19,8.8L16.41,8.715L16.47,8.622L16.5,8.506L16.5,7.184L16.47,7.07L16.41,6.98L16.19,6.9L10.57,6.9zz" id="b" fill="#FFFFFF"/>
    </g>
    <g id="overlay">
      <circle cx="4.5" cy="4.5" r="4.4899" fill="#ED5564"/>
      <path d="M7.6749,1.3251c-0.0061,-0.0061,-0.0124,-0.0121,-0.0186,-0.0182L1.307,7.6563c0.0061,0.0062,0.012,0.0125,0.0182,0.0186c1.7534,1.7534,4.5963,1.7534,6.3497,0S9.4283,3.0786,7.6749,1.3251z" fill="#DB4453"/>
      <path d="M6.8,5H2.2c-0.1105,0,-0.2,-0.0895,-0.2,-0.2v-0.6c0,-0.1105,0.0895,-0.2,0.2,-0.2h4.6c0.1105,0,0.2,0.0895,0.2,0.2v0.6C7,4.9105,6.9105,5,6.8,5z" id="b" fill="#FFFFFF"/>
    </g>
  </g>
</svg>
