<?xml version="1.0" encoding="UTF-8"?>
<!DOCTYPE svg PUBLIC "-//W3C//DTD SVG 1.1//EN" "http://www.w3.org/Graphics/SVG/1.1/DTD/svg11.dtd">
<svg version="1.1" id="Layer_1" xmlns="http://www.w3.org/2000/svg" xmlns:xlink="http://www.w3.org/1999/xlink" x="0px" y="0px" width="24px" height="24px" viewBox="0 0 24 24" enable-background="new 0 0 24 24" xml:space="preserve">
  <g id="icon">
    <path d="M1.6,11h1.8c0.3314,0,0.6,0.2686,0.6,0.6v5.4342c2.5,-2.5184,5.6741,-5.8022,6.2968,-6.3876C11.2603,9.6835,13.7062,7.9,16.2288,7.9C20.2156,7.9,23,10.5076,23,14.2413v0.0163c0,1.6904,-1.194,5.8168,-1.6289,7.2485c-0.0892,0.2938,-0.36,0.4939,-0.6671,0.4939h-1.9969c-0.3195,0,-0.5476,-0.3089,-0.4531,-0.6141c0.645,-2.0834,1.7284,-5.8314,1.746,-7.1527C19.9957,11.7759,18.0499,10.9,16.2288,10.9c-1.4679,0,-3.2392,1.2904,-3.8218,1.8791l-0.0456,0.0441C11.8779,13.2721,8.8751,16.3,6.2767,19H11.4c0.3314,0,0.6,0.2686,0.6,0.6v1.8c0,0.3314,-0.2686,0.6,-0.6,0.6H3.4H2.4h-0.8c-0.3314,0,-0.6,-0.2686,-0.6,-0.6v-9.8C1,11.2686,1.2686,11,1.6,11z" fill="#FE1616"/>
  </g>
</svg>
