<?xml version="1.0" encoding="UTF-8"?>
<!DOCTYPE svg PUBLIC "-//W3C//DTD SVG 1.1//EN" "http://www.w3.org/Graphics/SVG/1.1/DTD/svg11.dtd">
<svg version="1.1" id="Layer_1" xmlns="http://www.w3.org/2000/svg" xmlns:xlink="http://www.w3.org/1999/xlink" x="0px" y="0px" width="24px" height="24px" viewBox="0 0 24 24" enable-background="new 0 0 24 24" xml:space="preserve">
  <g id="main">
    <g id="icon">
      <path d="M9.876,0.0668C8.483,0.2274,7.118,0.6262,5.875,1.282C4.02,2.266,2.456,3.785,1.425,5.616C0.5305,7.203,0.04647,9.014,0.01847,10.84C-0.007483,12.66,0.422,14.48,1.269,16.1C2.252,17.97,3.782,19.54,5.625,20.58C7.21,21.47,9.017,21.95,10.84,21.98C11.09,21.96,11.45,22.08,11.54,21.77C12.13,20.9,13.26,20.75,14.18,20.4C14.19,20.22,13.96,19.96,13.9,19.73C13.42,18.56,13.26,17.14,13.86,15.98C14.27,15.22,15.08,14.76,15.92,14.61C16.02,13.64,16.59,12.71,17.51,12.33C18.34,11.99,19.27,11.95,20.15,12.1C20.77,12.21,21.4,12.53,21.8,12.99C22.13,11.16,22,9.248,21.41,7.488C20.67,5.297,19.22,3.358,17.33,2.029C15.84,0.9637,14.07,0.2977,12.25,0.08549C11.46,-0.001094,10.67,0.008449,9.876,0.0668z" fill="#B04AFE"/>
      <path d="M3.185,18.73C4.214,19.74,5.424,20.58,6.76,21.14C8.232,21.74,9.834,22.04,11.43,21.97C11.89,21.01,13.03,20.8,13.95,20.48C14.13,20.44,14.28,20.39,14.12,20.2C13.52,19.04,13.25,17.63,13.69,16.37C14,15.4,14.94,14.77,15.92,14.61C16.02,13.64,16.59,12.71,17.51,12.33C18.34,11.99,19.27,11.95,20.15,12.1C20.77,12.21,21.41,12.53,21.8,12.99C22.16,11.01,21.98,8.931,21.25,7.05C20.71,5.63,19.85,4.343,18.79,3.255C18.55,3.189,18.3,3.699,18.05,3.863C13.09,8.817,8.139,13.77,3.185,18.73z" fill="#A128FF"/>
      <path d="M8.373,4.97C8.154,5.404,8.206,5.928,8.103,6.4C7.915,7.868,7.679,9.335,7.522,10.8C7.634,11.24,8.178,10.98,8.495,10.99C9.667,10.92,11.02,10.87,11.95,11.72C12.54,12.33,12.65,13.31,12.34,14.08C11.89,15.13,10.64,15.55,9.573,15.39C8.86,15.35,8.188,15.08,7.548,14.79C7.126,14.82,7.169,15.37,7.014,15.66C6.92,15.96,6.654,16.44,7.083,16.6C8.08,17.13,9.239,17.33,10.36,17.27C11.23,17.24,12.1,16.98,12.84,16.51C13.47,16.1,13.98,15.53,14.31,14.86C14.66,14.11,14.78,13.26,14.68,12.44C14.52,11.2,13.67,10.1,12.52,9.613C11.63,9.165,10.57,9.125,9.613,9.141C9.743,8.367,9.828,7.541,9.986,6.8C11.4,6.788,12.83,6.824,14.24,6.782C14.67,6.676,14.44,6.128,14.5,5.806C14.46,5.49,14.65,4.957,14.19,4.9C12.3,4.911,10.41,4.878,8.523,4.917C8.473,4.934,8.423,4.952,8.373,4.97z" id="b" fill="#FFFFFF"/>
    </g>
    <g id="overlay">
      <path d="M12.594,24c-0.278,0,-0.512,-0.215,-0.52,-0.489c-0.004,-0.152,0.016,-0.304,0.047,-0.511c0.237,-1.153,0.625,-1.05,2.933,-1.834c0.337,-0.122,0.433,-0.298,0.408,-0.548c0,-0.232,-0.999,-1.335,-0.999,-2.928c0,-1.312,0.594,-2.143,2.288,-2.143c0.006,0,0.012,0,0.018,0c0.006,0,0.012,0,0.018,0c1.706,0,2.288,0.831,2.288,2.143c0,1.593,-0.999,2.696,-0.999,2.928c-0.025,0.25,0.071,0.427,0.408,0.548c2.308,0.784,2.73,0.682,2.967,1.834c0.026,0.166,0.043,0.298,0.047,0.422c0.009,0.317,-0.249,0.578,-0.57,0.578H12.594z" fill-rule="evenodd" fill="#FF28A7"/>
      <path d="M21.01,24c0.261,0,0.475,-0.203,0.488,-0.46c0.008,-0.162,-0.012,-0.321,-0.046,-0.541c-0.237,-1.153,-0.66,-1.05,-2.967,-1.834c-0.337,-0.122,-0.433,-0.298,-0.408,-0.548c0,-0.232,0.999,-1.335,0.999,-2.928c0,-1.315,-0.585,-2.146,-2.3,-2.143c0,0,0,0,0,0l0,8.453H21.01z" fill="#EC008C" opacity="0.4"/>
      <path d="M23.878,20.464c-0.237,-1.153,-0.66,-1.05,-2.967,-1.834c-0.337,-0.122,-0.433,-0.298,-0.408,-0.548c0,-0.232,0.999,-1.335,0.999,-2.928c0,-1.312,-0.582,-2.143,-2.288,-2.143c-0.006,0,-0.012,0,-0.018,0c-0.006,0,-0.012,0,-0.018,0c-1.512,0,-2.148,0.663,-2.267,1.738c1.913,0.043,2.964,1.083,2.964,2.941c0,1.267,-0.513,2.241,-0.845,2.816c0.286,0.095,0.539,0.175,0.769,0.248c0.734,0.233,1.28,0.407,1.677,0.711h1.878c0.322,0,0.58,-0.262,0.57,-0.578C23.922,20.761,23.904,20.63,23.878,20.464z" fill-rule="evenodd" fill="#FF28A7"/>
      <path d="M23.878,20.464c-0.237,-1.153,-0.66,-1.05,-2.967,-1.834c-0.337,-0.122,-0.433,-0.298,-0.408,-0.548c0,-0.232,0.999,-1.335,0.999,-2.928c0,-1.315,-0.585,-2.146,-2.3,-2.143c0,0,0,0,0,0v2.624c0.442,0.493,0.674,1.184,0.674,2.054c0,1.064,-0.361,1.92,-0.674,2.508v0.364c0.217,0.071,0.415,0.134,0.598,0.192c0.734,0.233,1.28,0.407,1.677,0.711h1.959c0.261,0,0.475,-0.203,0.488,-0.46C23.933,20.843,23.912,20.684,23.878,20.464z" fill="#EC008C" opacity="0.4"/>
    </g>
  </g>
</svg>
