<?xml version="1.0" encoding="UTF-8"?>
<!DOCTYPE svg PUBLIC "-//W3C//DTD SVG 1.1//EN" "http://www.w3.org/Graphics/SVG/1.1/DTD/svg11.dtd">
<svg version="1.1" id="Layer_1" xmlns="http://www.w3.org/2000/svg" xmlns:xlink="http://www.w3.org/1999/xlink" x="0px" y="0px" width="24px" height="24px" viewBox="0 0 24 24" enable-background="new 0 0 24 24" xml:space="preserve">
  <g id="main">
    <g id="icon">
      <path d="M14.55,1.071C14.04,1.294,13.95,1.884,14,2.38C14.01,4.642,13.98,6.909,14.01,9.169C14.04,9.738,14.63,10.07,15.16,10C17.5,9.991,19.84,10.02,22.17,9.986C22.74,9.957,23.07,9.369,23,8.84C22.99,6.504,23.02,4.165,22.99,1.831C22.96,1.262,22.37,0.9267,21.84,1C19.5,1.009,17.16,0.9814,14.83,1.014C14.74,1.033,14.64,1.052,14.55,1.071zM3.551,12.07C3.426,12.15,3.279,12.24,3.511,12.17C4.437,11.93,5.445,11.97,6.34,12.31C7.244,12.67,7.845,13.56,7.956,14.52C8.064,14.7,8.414,14.63,8.612,14.73C9.547,14.99,10.3,15.79,10.47,16.75C10.74,17.99,10.42,19.29,9.825,20.39C10.37,20.55,10.93,20.79,11.47,20.92C12.01,20.68,12.03,20.03,12,19.52C11.99,17.29,12.02,15.06,11.99,12.83C11.96,12.26,11.37,11.93,10.84,12C8.504,12.01,6.165,11.98,3.831,12.01C3.738,12.03,3.644,12.05,3.551,12.07z" fill="#ECD5FF"/>
      <path d="M17.98,10C19.39,9.987,20.8,10.03,22.2,9.98C22.78,9.94,23.08,9.326,23,8.8C22.99,6.478,23.02,4.151,22.99,1.831C22.96,1.262,22.37,0.9267,21.84,1C21.5,1.019,21.11,0.9617,20.81,1.029C19.87,4.019,18.92,7.01,17.98,10zM8.92,14.85C9.936,15.23,10.53,16.31,10.55,17.36C10.63,18.41,10.33,19.47,9.825,20.39C10.37,20.55,10.93,20.79,11.47,20.92C12.01,20.68,12.03,20.03,12,19.52C11.99,17.29,12.02,15.06,11.99,12.83C11.96,12.26,11.37,11.93,10.84,12C10.5,12.02,10.11,11.96,9.809,12.03C9.513,12.97,9.217,13.91,8.92,14.85z" fill="#D8A5FF" opacity="0.5"/>
      <path d="M3.551,1.071C3.039,1.294,2.954,1.884,3,2.38C3.009,4.642,2.981,6.909,3.014,9.169C3.043,9.738,3.631,10.07,4.16,10C6.496,9.991,8.835,10.02,11.17,9.986C11.74,9.957,12.07,9.369,12,8.84C11.99,6.504,12.02,4.165,11.99,1.831C11.96,1.262,11.37,0.9267,10.84,1C8.504,1.009,6.165,0.9814,3.831,1.014C3.738,1.033,3.644,1.052,3.551,1.071zM14.55,12.07C14.04,12.29,13.95,12.88,14,13.38C14.01,15.64,13.98,17.91,14.01,20.17C14.04,20.74,14.63,21.07,15.16,21C17.5,20.99,19.84,21.02,22.17,20.99C22.74,20.96,23.07,20.37,23,19.84C22.99,17.5,23.02,15.16,22.99,12.83C22.96,12.26,22.37,11.93,21.84,12C19.5,12.01,17.16,11.98,14.83,12.01C14.74,12.03,14.64,12.05,14.55,12.07z" fill="#B04AFE"/>
      <path d="M6.982,10C8.387,9.987,9.797,10.03,11.2,9.98C11.78,9.94,12.08,9.326,12,8.8C11.99,6.478,12.02,4.151,11.99,1.831C11.96,1.262,11.37,0.9267,10.84,1C10.5,1.019,10.11,0.9617,9.809,1.029C8.867,4.019,7.924,7.01,6.982,10zM17.98,21C19.39,20.99,20.8,21.03,22.2,20.98C22.78,20.94,23.08,20.33,23,19.8C22.99,17.48,23.02,15.15,22.99,12.83C22.96,12.26,22.37,11.93,21.84,12C21.5,12.02,21.11,11.96,20.81,12.03C19.87,15.02,18.92,18.01,17.98,21z" fill="#A128FF" opacity="0.8"/>
    </g>
    <g id="overlay">
      <path d="M3.094,24c-0.278,0,-0.512,-0.215,-0.52,-0.489c-0.004,-0.152,0.016,-0.304,0.047,-0.511c0.237,-1.153,0.625,-1.05,2.933,-1.834c0.337,-0.122,0.433,-0.298,0.408,-0.548c0,-0.232,-0.999,-1.335,-0.999,-2.928c0,-1.312,0.594,-2.143,2.288,-2.143c0.006,0,0.012,0,0.018,0c0.006,0,0.012,0,0.018,0c1.706,0,2.288,0.831,2.288,2.143c0,1.593,-0.999,2.696,-0.999,2.928c-0.025,0.25,0.071,0.427,0.408,0.548c2.308,0.784,2.73,0.682,2.967,1.834c0.026,0.166,0.043,0.298,0.047,0.422c0.009,0.317,-0.249,0.578,-0.57,0.578H3.094z" fill-rule="evenodd" fill="#FF28A7"/>
      <path d="M11.51,24c0.261,0,0.475,-0.203,0.488,-0.46c0.008,-0.162,-0.012,-0.321,-0.046,-0.541c-0.237,-1.153,-0.66,-1.05,-2.967,-1.834c-0.337,-0.122,-0.433,-0.298,-0.408,-0.548c0,-0.232,0.999,-1.335,0.999,-2.928c0,-1.315,-0.585,-2.146,-2.3,-2.143c0,0,0,0,0,0l0,8.453H11.51z" fill="#EC008C" opacity="0.4"/>
      <path d="M4.272,20.743c0.221,-0.07,0.463,-0.148,0.736,-0.238c-0.332,-0.575,-0.845,-1.549,-0.845,-2.816c0,-1.81,0.998,-2.843,2.818,-2.935c-0.115,-1.079,-0.742,-1.744,-2.268,-1.744c-0.006,0,-0.012,0,-0.018,0c-0.006,0,-0.012,0,-0.018,0c-1.694,0,-2.288,0.831,-2.288,2.143c0,1.593,0.999,2.696,0.999,2.928c0.025,0.25,-0.071,0.427,-0.408,0.548c-2.308,0.784,-2.696,0.682,-2.933,1.834c-0.032,0.206,-0.052,0.359,-0.047,0.511c0.008,0.274,0.242,0.489,0.52,0.489h2.068C2.986,21.154,3.534,20.979,4.272,20.743z" fill-rule="evenodd" fill="#FF28A7"/>
      <g>
        <path d="M4.702,20.605c0.098,-0.032,0.199,-0.065,0.306,-0.1c-0.093,-0.161,-0.2,-0.355,-0.306,-0.576V20.605z" fill="#EC008C" opacity="0.4"/>
        <path d="M6.982,14.754c-0.116,-1.081,-0.745,-1.747,-2.279,-1.744c0,0,0,0,0,0V15.8C5.172,15.165,5.943,14.806,6.982,14.754z" fill="#EC008C" opacity="0.4"/>
      </g>
    </g>
  </g>
</svg>
